<svg width="119" height="36" viewBox="0 0 119 36" fill="none" xmlns="http://www.w3.org/2000/svg">
<path fill-rule="evenodd" clip-rule="evenodd" d="M17.3648 17.2328C17.2748 17.1025 17.1837 16.9766 17.0935 16.852C16.5301 16.0739 16.0017 15.3441 16.0017 13.8689V8.14426C16.0017 7.94084 16.0029 7.73909 16.0042 7.53915V7.53906C16.0177 5.36073 16.03 3.39708 14.4015 1.82951C12.9791 0.472131 10.6678 0 8.88981 0C5.39315 0 1.48164 1.29836 0.651919 5.60656C0.592654 6.07869 0.888981 6.31475 1.18531 6.37377L4.74123 6.72787C5.09682 6.72787 5.33389 6.37377 5.39315 6.07869C5.68948 4.60328 6.93405 3.89508 8.35642 3.89508C9.12687 3.89508 9.95659 4.19016 10.4307 4.83934C10.8829 5.4898 10.8665 6.30994 10.8511 7.08397V7.08399C10.8483 7.22292 10.8456 7.36037 10.8456 7.49508V7.96721C10.5534 7.99954 10.249 8.03076 9.93613 8.06285C7.96464 8.26505 5.6587 8.50156 3.97078 9.26557C1.65943 10.2689 0 12.2754 0 15.2852C0 19.0623 2.42988 21.0098 5.51168 21.0098C8.11936 21.0098 9.54173 20.4197 11.5568 18.3541C11.6401 18.4749 11.7167 18.5879 11.7895 18.6953C12.2858 19.4278 12.6049 19.8988 13.6903 20.7738C13.9866 20.8918 14.3422 20.8918 14.5793 20.7148C15.2905 20.0656 16.6536 18.8852 17.3648 18.2951C17.6611 18 17.6018 17.5869 17.3648 17.2328ZM10.1344 15.6393C9.54173 16.6426 8.65275 17.2918 7.58597 17.2918C6.1636 17.2918 5.33389 16.2295 5.33389 14.6361C5.33389 11.5082 8.11936 10.977 10.7863 10.977V11.7443L10.7884 11.794C10.8468 13.1883 10.8958 14.3562 10.1344 15.6393ZM58.0596 8.12187C58.3725 8.08978 58.6769 8.05856 58.9691 8.02623L59.0876 7.61311C59.0876 7.53339 59.0881 7.45271 59.0886 7.37134V7.37116C59.0935 6.54895 59.0988 5.65545 58.6135 4.95738C58.1394 4.3082 57.3097 4.01311 56.5392 4.01311C55.1168 4.01311 53.8723 4.72131 53.5759 6.19672C53.5167 6.4918 53.2796 6.8459 52.924 6.8459L49.3681 6.4918C49.0718 6.43279 48.7754 6.19672 48.8347 5.72459C49.6644 1.41639 53.5759 0.118033 57.0726 0.118033C58.8506 0.118033 61.1619 0.590164 62.5843 1.94754C64.2127 3.51511 64.2005 5.47876 64.1869 7.6571L64.1869 7.65899C64.1857 7.85834 64.1844 8.05949 64.1844 8.26229V13.9869C64.1844 15.4621 64.7129 16.192 65.2762 16.9701L65.2764 16.9703C65.3666 17.0948 65.4576 17.2206 65.5475 17.3508C65.7846 17.6459 65.8439 18.059 65.5475 18.2951C64.8364 18.8852 63.4733 20.0656 62.7621 20.7148C62.525 20.8918 62.1694 20.8918 61.8731 20.7738C60.7877 19.8988 60.4686 19.4278 59.9723 18.6953C59.8995 18.5879 59.8229 18.4749 59.7395 18.3541C57.7245 20.4197 56.3021 21.0098 53.6945 21.0098C50.6127 21.0098 48.1828 19.0623 48.1828 15.2852C48.1828 12.3344 49.7829 10.3279 52.0943 9.32459C53.7822 8.56058 56.0882 8.32407 58.0596 8.12187ZM55.7687 17.2918C56.7763 17.2918 57.7245 16.6426 58.3172 15.6393C58.977 14.4347 58.9736 13.3317 58.9697 12.0475V12.0471V12.0466C58.9694 11.947 58.9691 11.8462 58.9691 11.7443V10.977C56.3021 10.977 53.5167 11.5082 53.5167 14.6361C53.5167 16.2295 54.3464 17.2918 55.7687 17.2918ZM24.5951 20.7148H20.9207C20.5651 20.6557 20.2688 20.4197 20.2095 20.0656V1.23934C20.2095 0.885246 20.5058 0.590164 20.9207 0.590164H24.3581C24.7137 0.64918 25.01 0.885246 25.01 1.23934V3.71803H25.0693C26.0175 1.35738 27.6769 0.236066 29.929 0.236066C32.1811 0.236066 33.6628 1.35738 34.6703 3.71803C35.5592 1.35738 37.5743 0.236066 39.7671 0.236066C41.308 0.236066 43.0267 0.885246 44.0342 2.30164C45.052 3.66986 45.021 5.56022 44.992 7.33757V7.33767V7.33777V7.33787V7.33797C44.9872 7.63041 44.9824 7.91979 44.9824 8.20328V20.0656C44.9824 20.4197 44.6861 20.7148 44.2713 20.7148H40.5968C40.2412 20.7148 39.9449 20.4197 39.9449 20.0656V10.0918C39.9449 9.94689 39.9467 9.76748 39.9488 9.566C39.9584 8.61872 39.973 7.18347 39.8264 6.55082C39.5893 5.31148 38.7596 4.95738 37.6928 4.95738C36.8038 4.95738 35.8556 5.54754 35.5 6.4918C35.1294 7.3352 35.1371 8.69651 35.143 9.73466C35.1437 9.85881 35.1444 9.97833 35.1444 10.0918V20.0656C35.1444 20.4197 34.8481 20.7148 34.4332 20.7148H30.7587C30.4032 20.7148 30.1068 20.4197 30.1068 20.0656V10.0918C30.1068 9.86989 30.1107 9.63767 30.1147 9.39972V9.39964V9.39956V9.39948V9.39939C30.1488 7.35934 30.1899 4.89836 27.8547 4.89836C25.2953 4.89836 25.3013 7.67039 25.3059 9.82391C25.3061 9.91438 25.3063 10.0038 25.3063 10.0918V20.0656C25.3063 20.4197 25.01 20.7148 24.5951 20.7148ZM81.7863 15.6393C79.6527 14.459 77.2228 14.1049 74.9115 14.1639L81.1936 5.25246C81.7863 4.42623 82.0826 3.9541 82.0826 3.54098V1.23934C82.0826 0.82623 81.7863 0.590164 81.3714 0.590164H69.2813C68.9257 0.590164 68.6293 0.885246 68.6293 1.23934V3.89508C68.6293 4.3082 68.9257 4.54426 69.3405 4.54426H75.6227L68.3923 14.8721C67.9774 15.5213 67.9774 16.2885 67.9774 16.7016V19.4164C67.9774 19.8295 68.3923 20.2426 68.8071 20.0066C72.8965 17.823 77.8155 18.059 81.5492 20.0066C82.0233 20.2426 82.4382 19.7705 82.4382 19.4164V16.5246C82.3789 16.2885 82.2604 15.8754 81.7863 15.6393ZM68.4515 24.3738C67.7404 24.4328 67.6811 23.8426 68.2738 23.4295C72.1853 20.6557 78.7045 21.482 79.4156 22.4852C80.1861 23.3705 79.1786 29.8623 75.5041 32.9311C74.9707 33.4033 74.4374 33.1672 74.6744 32.518L74.717 32.412L74.7171 32.4119C75.567 30.297 77.3857 25.7714 76.5116 24.6689C75.6575 23.5915 71.028 24.0941 68.7216 24.3445L68.4515 24.3738ZM48.8347 31.1607C56.4799 31.1607 64.8956 29.5672 72.6001 26.3213C73.7854 25.7902 74.7337 27.0295 73.5484 27.9738C66.6736 32.9902 56.6577 35.7049 48.0642 35.7049C36.0334 35.7049 25.1878 31.2787 16.9499 23.9016C16.298 23.3115 16.8906 22.4852 17.6611 22.9574C26.5509 28.0918 37.515 31.1607 48.8347 31.1607ZM84.2161 10.623C84.2161 4.78033 87.1201 0.236066 92.454 0.236066C97.9064 0.236066 100.81 4.89836 100.87 10.8C100.87 16.5246 97.6101 21.0689 92.454 21.0689C87.1201 21.0689 84.2161 16.4066 84.2161 10.623ZM89.6092 10.1683C89.6081 12.5209 89.6058 17.2328 92.454 17.2328C95.2988 17.2328 95.4173 13.2787 95.4766 10.859C95.4766 9.32459 95.4173 7.37705 94.9432 5.90164C94.5283 4.60328 93.6986 4.07213 92.5133 4.07213C89.7871 4.07213 89.6093 7.73115 89.6093 10.0328L89.6092 10.1683ZM108.456 4.01311C109.463 1.47541 110.886 0.236066 113.434 0.236066C115.034 0.236066 116.634 0.82623 117.76 2.5377C118.709 4.01311 118.709 6.55082 118.709 8.38033V20.1836C118.649 20.5377 118.353 20.7738 117.997 20.7738H114.323C113.967 20.7738 113.73 20.4787 113.671 20.1836V9.97377C113.671 9.81549 113.672 9.65166 113.674 9.48407C113.691 7.46459 113.713 4.89836 111.36 4.89836C110.471 4.89836 109.641 5.48852 109.226 6.37377C108.693 7.49508 108.633 8.67541 108.633 9.91475V20.0066C108.633 20.3607 108.337 20.6557 107.922 20.6557H104.248C103.892 20.6557 103.596 20.3607 103.596 20.0066V1.23934C103.655 0.944262 103.952 0.64918 104.307 0.64918H107.685C107.982 0.64918 108.278 0.885246 108.337 1.18033V4.01311H108.456Z" fill="#2E3E5C"/>
</svg>
