<svg width="13" height="13" viewBox="0 0 13 13" fill="none" xmlns="http://www.w3.org/2000/svg">
<path d="M6.15234 2.98047C4.40234 2.98047 3.00781 4.40234 3.00781 6.125C3.00781 7.875 4.40234 9.26953 6.15234 9.26953C7.875 9.26953 9.29688 7.875 9.29688 6.125C9.29688 4.40234 7.875 2.98047 6.15234 2.98047ZM6.15234 8.17578C5.03125 8.17578 4.10156 7.27344 4.10156 6.125C4.10156 5.00391 5.00391 4.10156 6.15234 4.10156C7.27344 4.10156 8.17578 5.00391 8.17578 6.125C8.17578 7.27344 7.27344 8.17578 6.15234 8.17578ZM10.1445 2.87109C10.1445 2.46094 9.81641 2.13281 9.40625 2.13281C8.99609 2.13281 8.66797 2.46094 8.66797 2.87109C8.66797 3.28125 8.99609 3.60938 9.40625 3.60938C9.81641 3.60938 10.1445 3.28125 10.1445 2.87109ZM12.2227 3.60938C12.168 2.625 11.9492 1.75 11.2383 1.03906C10.5273 0.328125 9.65234 0.109375 8.66797 0.0546875C7.65625 0 4.62109 0 3.60938 0.0546875C2.625 0.109375 1.77734 0.328125 1.03906 1.03906C0.328125 1.75 0.109375 2.625 0.0546875 3.60938C0 4.62109 0 7.65625 0.0546875 8.66797C0.109375 9.65234 0.328125 10.5 1.03906 11.2383C1.77734 11.9492 2.625 12.168 3.60938 12.2227C4.62109 12.2773 7.65625 12.2773 8.66797 12.2227C9.65234 12.168 10.5273 11.9492 11.2383 11.2383C11.9492 10.5 12.168 9.65234 12.2227 8.66797C12.2773 7.65625 12.2773 4.62109 12.2227 3.60938ZM10.9102 9.73438C10.7188 10.2812 10.2812 10.6914 9.76172 10.9102C8.94141 11.2383 7.02734 11.1562 6.15234 11.1562C5.25 11.1562 3.33594 11.2383 2.54297 10.9102C1.99609 10.6914 1.58594 10.2812 1.36719 9.73438C1.03906 8.94141 1.12109 7.02734 1.12109 6.125C1.12109 5.25 1.03906 3.33594 1.36719 2.51562C1.58594 1.99609 1.99609 1.58594 2.54297 1.36719C3.33594 1.03906 5.25 1.12109 6.15234 1.12109C7.02734 1.12109 8.94141 1.03906 9.76172 1.36719C10.2812 1.55859 10.6914 1.99609 10.9102 2.51562C11.2383 3.33594 11.1562 5.25 11.1562 6.125C11.1562 7.02734 11.2383 8.94141 10.9102 9.73438Z" fill="white"/>
</svg>
