<svg width="14" height="12" viewBox="0 0 14 12" fill="none" xmlns="http://www.w3.org/2000/svg">
<path d="M12.5508 2.81641C12.5508 2.95312 12.5508 3.0625 12.5508 3.19922C12.5508 7 9.67969 11.3477 4.40234 11.3477C2.76172 11.3477 1.25781 10.8828 0 10.0625C0.21875 10.0898 0.4375 10.1172 0.683594 10.1172C2.02344 10.1172 3.25391 9.65234 4.23828 8.88672C2.98047 8.85938 1.91406 8.03906 1.55859 6.89062C1.75 6.91797 1.91406 6.94531 2.10547 6.94531C2.35156 6.94531 2.625 6.89062 2.84375 6.83594C1.53125 6.5625 0.546875 5.41406 0.546875 4.01953V3.99219C0.929688 4.21094 1.39453 4.32031 1.85938 4.34766C1.06641 3.82812 0.574219 2.95312 0.574219 1.96875C0.574219 1.42188 0.710938 0.929688 0.957031 0.519531C2.37891 2.24219 4.51172 3.39062 6.89062 3.52734C6.83594 3.30859 6.80859 3.08984 6.80859 2.87109C6.80859 1.28516 8.09375 0 9.67969 0C10.5 0 11.2383 0.328125 11.7852 0.902344C12.4141 0.765625 13.043 0.519531 13.5898 0.191406C13.3711 0.875 12.9336 1.42188 12.332 1.77734C12.9062 1.72266 13.4805 1.55859 13.9727 1.33984C13.5898 1.91406 13.0977 2.40625 12.5508 2.81641Z" fill="white"/>
</svg>
